<svg height="496pt" viewBox="0 0 496 496" width="496pt" xmlns="http://www.w3.org/2000/svg" xmlns:xlink="http://www.w3.org/1999/xlink"><linearGradient id="a" gradientUnits="userSpaceOnUse" x1="248" x2="248" y1="496" y2="0"><stop offset="0" stop-color="#9f2fff"/><stop offset="1" stop-color="#0bb1d3"/></linearGradient><path d="m472 144h-40v-94.113281l5.105469-10.207031c1.894531-3.792969 2.894531-8.03125 2.894531-12.265626 0-15.117187-12.304688-27.414062-27.414062-27.414062h-9.171876c-15.109374 0-27.414062 12.296875-27.414062 27.414062 0 4.234376 1 8.480469 2.894531 12.265626l5.105469 10.207031v94.113281h-192v-8c0-13.230469-10.769531-24-24-24h-16c-13.230469 0-24 10.769531-24 24v8h-16v-8c0-13.230469-10.769531-24-24-24h-16c-13.230469 0-24 10.769531-24 24v8h-24c-13.230469 0-24 10.769531-24 24v272c0 13.230469 10.769531 24 24 24h25.753906l8 32h92.492188l8-32h179.507812l8 32h92.492188l8-32h25.753906c13.230469 0 24-10.769531 24-24v-272c0-13.230469-10.769531-24-24-24zm-78.792969-111.480469c-.792969-1.574219-1.207031-3.34375-1.207031-5.105469 0-6.292968 5.121094-11.414062 11.414062-11.414062h9.171876c6.292968 0 11.414062 5.121094 11.414062 11.414062 0 1.769532-.414062 3.53125-1.207031 5.113282l-6.792969 13.585937v97.886719h-16v-97.886719zm-249.207031 103.480469c0-4.414062 3.59375-8 8-8h16c4.40625 0 8 3.585938 8 8v8h-32zm-80 0c0-4.414062 3.59375-8 8-8h16c4.40625 0 8 3.585938 8 8v8h-32zm384 312h-400v-256h400zm-310.246094 32h-67.507812l-4-16h75.507812zm288 0h-67.507812l-4-16h75.507812zm54.246094-40c0 4.414062-3.59375 8-8 8h-8v-272h-432v272h-8c-4.40625 0-8-3.585938-8-8v-272c0-4.414062 3.59375-8 8-8h448c4.40625 0 8 3.585938 8 8zm-48-232h-144v64h144zm-16 48h-48v-16h-16v16h-48v-32h112zm16 112h-144v64h144zm-64 16h16v32h-16zm-16 32h-16v-32h16zm-48-32h16v32h-16zm112 32h-16v-32h16zm-48-96c0 17.648438 14.351562 32 32 32s32-14.351562 32-32-14.351562-32-32-32-32 14.351562-32 32zm48 0c0 8.824219-7.175781 16-16 16s-16-7.175781-16-16 7.175781-16 16-16 16 7.175781 16 16zm-96 32c17.648438 0 32-14.351562 32-32s-14.351562-32-32-32-32 14.351562-32 32 14.351562 32 32 32zm0-48c8.824219 0 16 7.175781 16 16s-7.175781 16-16 16-16-7.175781-16-16 7.175781-16 16-16zm-152 112c57.34375 0 104-43.0625 104-96s-46.65625-96-104-96-104 43.0625-104 96 46.65625 96 104 96zm-88-96c0-6.296875.886719-12.398438 2.40625-18.28125l18.28125 18.28125-18.28125 18.28125c-1.519531-5.882812-2.40625-11.984375-2.40625-18.28125zm32 11.3125 16.6875 16.6875-25.710938 25.710938c-5.703124-5.703126-10.503906-12.136719-14.214843-19.152344zm56-56 16.6875 16.6875-16.6875 16.6875-16.6875-16.6875zm-28 5.375-24.640625-24.640625c6.761719-4.613281 14.257813-8.34375 22.328125-11.046875l19 19zm39.3125-16.6875 19.007812-19.007812c8.0625 2.703124 15.558594 6.441406 22.328126 11.046874l-24.640626 24.640626zm-11.3125 100.6875-16.6875-16.6875 16.6875-16.6875 16.6875 16.6875zm28-5.375 24.640625 24.640625c-6.761719 4.605469-14.257813 8.34375-22.320313 11.046875l-19.007812-19zm-39.3125 16.6875-19.007812 19.007812c-8.0625-2.703124-15.558594-6.441406-22.328126-11.046874l24.640626-24.640626zm22.625-56 16.6875-16.6875 16.6875 16.6875-16.6875 16.6875zm-22.625 0-16.6875 16.6875-16.6875-16.6875 16.6875-16.6875zm-.558594 79.183594 11.871094-11.871094 11.871094 11.871094c-3.894532.480468-7.839844.816406-11.871094.816406s-7.976562-.335938-11.871094-.816406zm76.894532-25.472656-25.710938-25.710938 16.6875-16.6875 23.246094 23.246094c-3.71875 7.015625-8.519532 13.449218-14.222656 19.152344zm22.976562-53.710938c0 6.296875-.886719 12.398438-2.40625 18.28125l-18.28125-18.28125 18.28125-18.28125c1.519531 5.882812 2.40625 11.984375 2.40625 18.28125zm-8.753906-34.558594-23.246094 23.246094-16.6875-16.6875 25.710938-25.710938c5.703124 5.703126 10.503906 12.136719 14.222656 19.152344zm-67.375-44.625-11.871094 11.871094-11.871094-11.871094c3.894532-.480468 7.839844-.816406 11.871094-.816406s7.976562.335938 11.871094.816406zm-76.894532 25.472656 25.710938 25.710938-16.6875 16.6875-23.246094-23.246094c3.71875-7.015625 8.519532-13.449218 14.222656-19.152344zm0 0" fill="url(#a)"/></svg>